HIERARCHY
ROOT Hips
{
	OFFSET 0.00000 0.00000 0.00000
	CHANNELS 6 Xposition Yposition Zposition Zrotation Yrotation Xrotation 
	JOINT LHipJoint
	{
		OFFSET 0 0 0
		CHANNELS 3 Zrotation Yrotation Xrotation
		JOINT LeftHip
		{
			OFFSET 1.37590 -1.78394 0.89329
			CHANNELS 3 Zrotation Yrotation Xrotation
			JOINT LeftKnee
			{
				OFFSET 2.47928 -6.81178 0.00000
				CHANNELS 3 Zrotation Yrotation Xrotation
				JOINT LeftAnkle
				{
					OFFSET 2.63345 -7.23535 0.00000
					CHANNELS 3 Zrotation Yrotation Xrotation
					JOINT LeftToe
					{
						OFFSET 0.23938 -0.65768 2.27012
						CHANNELS 3 Zrotation Yrotation Xrotation
						End Site
						{
							OFFSET 0.00000 -0.00000 1.18363
						}
					}
				}
			}
		}
	}
	JOINT RHipJoint
	{
		OFFSET 0 0 0
		CHANNELS 3 Zrotation Yrotation Xrotation
		JOINT RightHip
		{
			OFFSET -1.33617 -1.78394 0.89329
			CHANNELS 3 Zrotation Yrotation Xrotation
			JOINT RightKnee
			{
				OFFSET -2.56922 -7.05888 0.00000
				CHANNELS 3 Zrotation Yrotation Xrotation
				JOINT RightAnkle
				{
					OFFSET -2.56568 -7.04915 0.00000
					CHANNELS 3 Zrotation Yrotation Xrotation
					JOINT RightToe
					{
						OFFSET -0.27533 -0.75646 2.18105
						CHANNELS 3 Zrotation Yrotation Xrotation
						End Site
						{
							OFFSET -0.00000 -0.00000 1.15233
						}
					}
				}
			}
		}
	}
	JOINT lowerback
	{
		OFFSET 0 0 0
		CHANNELS 3 Zrotation Yrotation Xrotation
		JOINT Chest
		{
			OFFSET 0.06190 2.15152 -0.00935
			CHANNELS 3 Zrotation Yrotation Xrotation
			JOINT Chest2
			{
				OFFSET 0.06334 2.15332 0.00872
				CHANNELS 3 Zrotation Yrotation Xrotation
				JOINT lowerneck
				{
					OFFSET 0 0 0
					CHANNELS 3 Zrotation Yrotation Xrotation
					JOINT Neck
					{
						OFFSET -0.04202 1.66908 0.23524
						CHANNELS 3 Zrotation Yrotation Xrotation
						JOINT Head
						{
							OFFSET 0.07510 1.69357 -0.24440
							CHANNELS 3 Zrotation Yrotation Xrotation
							End Site
							{
								OFFSET 0.02556 1.71719 -0.11000
							}
						}
					}
				}
				JOINT LeftCollar
				{
					OFFSET 0 0 0
					CHANNELS 3 Zrotation Yrotation Xrotation
					JOINT LeftShoulder
					{
						OFFSET 3.67168 1.26306 -0.41342
CHANNELS 3 Zrotation Xrotation Yrotation
						JOINT LeftElbow
						{
OFFSET 0 -4.685100 -0.000000
CHANNELS 3 Zrotation Xrotation Yrotation
							JOINT LeftWrist
							{
OFFSET 0 -3.396260 -0.000000
CHANNELS 3 Zrotation Xrotation Yrotation
								JOINT lhand
								{
									OFFSET 0 0 0
CHANNELS 3 Zrotation Xrotation Yrotation
									JOINT LFingers
									{
OFFSET 0 -0.486080 -0.000000
CHANNELS 3 Zrotation Xrotation Yrotation
										End Site
										{
OFFSET 0 -0.391890 -0.000000
										}
									}
								}
								JOINT LThumb
								{
OFFSET 0 0.000000 0.000000
CHANNELS 3 Zrotation Xrotation Yrotation
									End Site
									{
OFFSET 0 -0.397870 0.397870
									}
								}
							}
						}
					}
				}
				JOINT RightCollar
				{
					OFFSET 0 0 0
					CHANNELS 3 Zrotation Yrotation Xrotation
					JOINT RightShoulder
					{
						OFFSET -3.04136 1.42992 -0.76390
CHANNELS 3 Zrotation Xrotation Yrotation
						JOINT RightElbow
						{
OFFSET 0 -5.555760 -0.000000
CHANNELS 3 Zrotation Xrotation Yrotation
							JOINT RightWrist
							{
OFFSET 0 -3.327740 -0.000000
CHANNELS 3 Zrotation Xrotation Yrotation
								JOINT rhand
								{
									OFFSET 0 0 0
CHANNELS 3 Zrotation Xrotation Yrotation
									JOINT RFingers
									{
OFFSET 0 -0.507630 -0.000000
CHANNELS 3 Zrotation Xrotation Yrotation
										End Site
										{
OFFSET 0 -0.409260 -0.000000
										}
									}
								}
								JOINT RThumb
								{
OFFSET 0 0.000000 0.000000
CHANNELS 3 Zrotation Xrotation Yrotation
									End Site
									{
OFFSET 0 -0.415510 0.415510
									}
								}
							}
						}
					}
				}
			}
		}
	}
}
MOTION
Frames: 7
Frame Time: 0.008333333333333333
-11.081222 18.007457 2.353443 -162.199529 -79.792556 168.332870 0.000000 0.000000 0.000000 -14.372994 -8.510503 -15.186168 0.760837 5.570478 15.543217 0.024160 0.626625 -3.235428 0.008055 0.577687 1.587463 0.000000 0.000000 0.000000 21.450622 7.355259 -15.181079 -8.584786 -16.532120 54.641403 0.412679 -11.817353 -0.640871 -0.049905 -1.440015 3.960525 1.751511 -0.557881 -2.354837 1.165046 -0.803485 -2.588780 0.203853 -0.439875 -1.340272 -12.429251 -9.966061 -13.035727 8.896593 -12.599368 12.617833 3.478194 -5.985089 7.367070 0.000000 0.000000 0.000000 2.496769 2.699595 -24.507590 23.799486 -34.951346 7.591407 15.127468 13.707272 -26.959913 0.000000 0.000000 0.000000 -7.125000 0.000000 0.000000 -16.526687 56.991548 4.948738 0.000000 0.000000 0.000000 -2.987567 -5.711359 38.826314 -43.871930 -50.200901 -21.369268 -24.018339 23.997452 20.542513 0.000000 0.000000 0.000000 7.125000 0.000000 0.000000 4.639661 52.227689 -0.827089
-11.276679 18.017778 2.368717 -163.931603 -79.824928 169.927755 0.000000 0.000000 0.000000 -15.096270 -8.140618 -14.283321 0.742805 5.505550 15.356391 0.033914 0.346715 -3.621510 0.011407 0.689277 1.894308 0.000000 0.000000 0.000000 20.827631 7.376840 -16.720693 -8.988752 -16.800052 56.050658 0.472285 -12.654766 -0.596789 -0.065827 -1.653867 4.549955 1.452282 -0.696675 -2.286618 1.143986 -0.981700 -2.538177 0.348149 -0.523074 -1.323254 -12.322128 -9.851053 -13.180678 8.839231 -12.434107 12.628845 3.460537 -5.901058 7.366277 0.000000 0.000000 0.000000 2.476980 2.532710 -25.561149 24.115594 -35.286095 7.773306 15.037477 13.137634 -27.492036 0.000000 0.000000 0.000000 -7.125000 0.000000 0.000000 -16.942473 57.484568 5.281441 0.000000 0.000000 0.000000 -3.037895 -5.451524 39.274299 -45.683756 -51.096838 -22.770284 -24.396124 24.634891 20.340663 0.000000 0.000000 0.000000 7.125000 0.000000 0.000000 4.200821 52.081874 -0.733577
-11.470008 18.026971 2.382736 -165.507274 -79.861324 171.379474 0.000000 0.000000 0.000000 -15.772985 -7.768352 -13.387349 0.722683 5.432018 15.144883 0.044983 0.069282 -4.029968 0.014215 0.768277 2.111455 0.000000 0.000000 0.000000 20.252772 7.388240 -18.240876 -9.323280 -17.010892 57.200872 0.537249 -13.452672 -0.723633 -0.082842 -1.855251 5.105792 1.175129 -0.836257 -2.218357 1.130876 -1.161762 -2.488555 0.488588 -0.607719 -1.305961 -12.215068 -9.738340 -13.317364 8.782303 -12.272423 12.628797 3.442958 -5.819087 7.361213 0.000000 0.000000 0.000000 2.466120 2.361825 -26.687233 24.489573 -35.677422 7.990400 14.952234 12.539343 -28.021422 0.000000 0.000000 0.000000 -7.125000 0.000000 0.000000 -17.364705 57.973848 5.624960 0.000000 0.000000 0.000000 -3.116687 -5.214540 39.688988 -47.555316 -51.957378 -24.235903 -24.758555 25.257915 20.147362 0.000000 0.000000 0.000000 7.125000 0.000000 0.000000 3.781823 51.940922 -0.647219
-11.661497 18.034981 2.395436 -166.964656 -79.902363 172.727596 0.000000 0.000000 0.000000 -16.409214 -7.400974 -12.504105 0.701175 5.352249 14.916048 0.057255 -0.196867 -4.450381 0.016230 0.823517 2.263382 0.000000 0.000000 0.000000 19.719910 7.392450 -19.732708 -9.583834 -17.169045 58.088088 0.607127 -14.214481 -1.002010 -0.100870 -2.047444 5.636818 0.911640 -0.976049 -2.153808 1.124746 -1.342691 -2.440412 0.628408 -0.693122 -1.286852 -12.109307 -9.629259 -13.446221 8.726567 -12.116037 12.617405 3.425601 -5.739842 7.352169 0.000000 0.000000 0.000000 2.463891 2.182523 -27.878287 24.921063 -36.123057 8.243449 14.873222 11.915607 -28.546785 0.000000 0.000000 0.000000 -7.125000 0.000000 0.000000 -17.790315 58.458314 5.977157 0.000000 0.000000 0.000000 -3.221558 -5.005313 40.074977 -49.478404 -52.781496 -25.758641 -25.103393 25.862815 19.961710 0.000000 0.000000 0.000000 7.125000 0.000000 0.000000 3.384636 51.804697 -0.567714
-11.851061 18.041740 2.406525 -168.316129 -79.949760 173.984851 0.000000 0.000000 0.000000 -17.006019 -7.038656 -11.633733 0.678595 5.267081 14.671833 0.070677 -0.451168 -4.877024 0.017549 0.855531 2.351484 0.000000 0.000000 0.000000 19.231554 7.385091 -21.173036 -9.752155 -17.268068 58.656794 0.681004 -14.929350 -1.436993 -0.119353 -2.226188 6.131163 0.659293 -1.114427 -2.091845 1.124297 -1.522311 -2.393780 0.768041 -0.778354 -1.266350 -12.004267 -9.523693 -13.567000 8.672976 -11.965190 12.595040 3.408693 -5.663380 7.339097 0.000000 0.000000 0.000000 2.470692 1.992899 -29.138239 25.421971 -36.631614 8.540624 14.807936 11.272041 -29.065698 0.000000 0.000000 0.000000 -7.125000 0.000000 0.000000 -18.211192 58.937386 6.335767 0.000000 0.000000 0.000000 -3.353570 -4.830054 40.427775 -51.454157 -53.561991 -27.340722 -25.428086 26.446546 19.785507 0.000000 0.000000 0.000000 7.125000 0.000000 0.000000 3.011881 51.673626 -0.495488
-12.039143 18.047122 2.416047 -169.582072 -80.004262 175.173249 0.000000 0.000000 0.000000 -17.568643 -6.681965 -10.785784 0.655940 5.180226 14.423347 0.085160 -0.701023 -5.306813 0.018096 0.868444 2.387039 0.000000 0.000000 0.000000 18.780903 7.369754 -22.562317 -9.835052 -17.316070 58.935735 0.756640 -15.597978 -1.995628 -0.139121 -2.404004 6.623528 0.415133 -1.251041 -2.036037 1.128226 -1.700074 -2.350724 0.907693 -0.862913 -1.244827 -11.902679 -9.422105 -13.681277 8.624137 -11.820498 12.565984 3.393296 -5.589904 7.324183 0.000000 0.000000 0.000000 2.484408 1.789037 -30.451293 25.983226 -37.192078 8.877586 14.751663 10.616907 -29.584827 0.000000 0.000000 0.000000 -7.125000 0.000000 0.000000 -18.635396 59.416633 6.704768 0.000000 0.000000 0.000000 -3.507200 -4.685493 40.751555 -53.471542 -54.302543 -28.970730 -25.732064 27.010230 19.615217 0.000000 0.000000 0.000000 7.125000 0.000000 0.000000 2.663194 51.544928 -0.429620
-12.225694 18.050913 2.423928 -170.735900 -80.070364 176.268689 0.000000 0.000000 0.000000 -18.088345 -6.333051 -9.964454 0.633762 5.093402 14.175256 0.100965 -0.947129 -5.738930 0.017848 0.863254 2.372675 0.000000 0.000000 0.000000 18.378937 7.340376 -23.872929 -9.809517 -17.301287 58.849749 0.831140 -16.200228 -2.675279 -0.160337 -2.579098 7.109035 0.184257 -1.385929 -1.988018 1.137044 -1.876141 -2.311699 1.044690 -0.946931 -1.221805 -11.805066 -9.325623 -13.785748 8.583148 -11.684068 12.526022 3.380202 -5.520178 7.305971 0.000000 0.000000 0.000000 2.506551 1.566626 -31.819598 26.620420 -37.813880 9.265787 14.697111 9.946393 -30.094587 0.000000 0.000000 0.000000 -7.125000 0.000000 0.000000 -19.065967 59.885064 7.081838 0.000000 0.000000 0.000000 -3.683589 -4.578785 41.043215 -55.534314 -54.994133 -30.654010 -26.009728 27.549422 19.451401 0.000000 0.000000 0.000000 7.125000 0.000000 0.000000 2.344261 51.417741 -0.370874
